<?xml version="1.0"?>
<svg xmlns="http://www.w3.org/2000/svg" id="Layer_1" enable-background="new 0 0 511 511" height="512px" viewBox="0 0 511 511" width="512px" class=""><g><g><path d="m416 184h-105v-81c0-12.958-10.042-23-23-23h-57v-57c0-4.687 3.814-8.5 8.5-8.5s8.5 3.813 8.5 8.5v40h15v-40c0-12.958-10.042-23-23-23h-64c-12.958 0-24 10.042-24 23v57h-56c-12.958 0-24 10.042-24 23v112h15v-112c0-4.687 4.313-8 9-8h56v17h-40v47h159v-47h-40v-17h57c4.686 0 8 3.313 8 8v185h-209v-57h-15v256c0 12.958 11.042 24 24 24h192c12.958 0 23-11.042 23-24v-200h113v64c0 4.687-3.314 9-8 9h-88v15h88c12.958 0 23-11.042 23-24v-144c0-12.958-10.042-23-23-23zm-264-40h-25v-17h25zm64-121v121h-49v-121c0-4.687 4.313-8 9-8h42.097c-1.027 2-2.097 5.003-2.097 8zm40 104v17h-25v-17zm40 360c0 4.687-3.314 9-8 9h-192c-4.687 0-9-4.313-9-9v-184h209zm128-215h-113v-41h113zm0-56h-113v-17h105c4.686 0 8 3.313 8 8z" data-original="#000000" class="active-path" data-old_color="#000000" fill="#FFFFFF"/><path d="m368 344.19c4.199 3.911 9.823 6.31 16 6.31 12.958 0 23.5-10.542 23.5-23.5s-10.542-23.5-23.5-23.5c-6.177 0-11.801 2.399-16 6.31-4.199-3.911-9.823-6.31-16-6.31-12.958 0-23.5 10.542-23.5 23.5s10.542 23.5 23.5 23.5c6.177 0 11.801-2.399 16-6.31zm16-25.69c4.686 0 8.5 3.813 8.5 8.5s-3.814 8.5-8.5 8.5-8.5-3.813-8.5-8.5 3.814-8.5 8.5-8.5zm-40.5 8.5c0-4.687 3.814-8.5 8.5-8.5s8.5 3.813 8.5 8.5-3.814 8.5-8.5 8.5-8.5-3.813-8.5-8.5z" data-original="#000000" class="active-path" data-old_color="#000000" fill="#FFFFFF"/><path d="m152 216h16v15h-16z" data-original="#000000" class="active-path" data-old_color="#000000" fill="#FFFFFF"/><path d="m184 216h16v15h-16z" data-original="#000000" class="active-path" data-old_color="#000000" fill="#FFFFFF"/><path d="m216 216h16v15h-16z" data-original="#000000" class="active-path" data-old_color="#000000" fill="#FFFFFF"/><path d="m112 176v95h159v-95zm144 80h-129v-65h129z" data-original="#000000" class="active-path" data-old_color="#000000" fill="#FFFFFF"/><path d="m271 320h-159v159h159zm-111 144h-33v-33h33zm0-48h-33v-33h33zm0-48h-33v-33h33zm48 96h-33v-33h33zm0-48h-33v-33h33zm0-48h-33v-33h33zm48 96h-33v-81h33zm0-96h-33v-33h33z" data-original="#000000" class="active-path" data-old_color="#000000" fill="#FFFFFF"/></g></g> </svg>
